<svg width="186" height="83" viewBox="0 0 186 83" fill="none" xmlns="http://www.w3.org/2000/svg">
    <path d="M77.3757 26.3311H66.9805C66.9366 26.2871 66.8489 26.1551 66.7173 25.9352C66.5857 25.7152 66.4761 25.5392 66.3884 25.4072C66.0375 25.0113 65.6427 24.6153 65.2041 24.2193C64.7216 23.9114 64.0856 23.5814 63.2961 23.2294C62.5505 22.9655 61.6513 22.8335 60.5986 22.8335C58.2739 22.8335 56.4756 23.6694 55.2036 25.3412C53.9316 27.013 53.2956 29.0588 53.2956 31.4785C53.2956 33.8543 53.9535 35.9001 55.2694 37.6159C56.5853 39.3317 58.3836 40.1896 60.6644 40.1896C61.8925 40.1896 63.1865 39.8596 64.5462 39.1997C65.9059 38.5398 66.7612 37.7039 67.1121 36.692H77.3757C77.2442 39.1557 76.2792 41.4434 74.4809 43.5552C72.6825 45.623 70.5552 47.1408 68.099 48.1087C65.9497 48.9886 63.3838 49.4286 60.4012 49.4286C55.1817 49.4286 50.9052 47.7348 47.5717 44.3471C44.2382 40.9155 42.5714 36.626 42.5714 31.4785C42.5714 26.1991 44.2382 21.8876 47.5717 18.544C50.9052 15.2003 55.1378 13.5285 60.2696 13.5285C64.5242 13.5285 68.3183 14.6724 71.6518 16.9601C75.0291 19.2039 76.9371 22.3275 77.3757 26.3311Z" fill="#111111"/>
    <path d="M84.6407 48.5707V0H95.3649V48.5707H84.6407Z" fill="#111111"/>
    <path d="M122.244 49.3626C116.893 49.3626 112.595 47.9327 109.349 45.073C106.147 42.2134 104.546 38.1878 104.546 32.9964V14.3864H115.27V32.2045C115.27 34.4482 115.84 36.23 116.981 37.5499C118.165 38.8697 119.854 39.5297 122.047 39.5297C124.24 39.5297 125.929 38.8697 127.113 37.5499C128.297 36.23 128.889 34.4482 128.889 32.2045V14.3864H139.614V32.9964C139.614 38.2758 138.013 42.3234 134.811 45.139C131.653 47.9547 127.464 49.3626 122.244 49.3626Z" fill="#111111"/>
    <path d="M159.157 43.6872V48.5707H148.696V0H159.288V19.4019C159.464 19.0939 159.793 18.654 160.275 18.082C161.328 16.7182 162.797 15.6623 164.683 14.9144C166.613 14.1224 168.521 13.7265 170.407 13.7265C175.276 13.7265 179.092 15.4643 181.855 18.9399C184.618 22.3715 186 26.5511 186 31.4785C186 36.494 184.596 40.7175 181.789 44.1492C178.982 47.5808 175.188 49.2966 170.407 49.2966C168.477 49.2966 166.547 48.9226 164.617 48.1747C162.731 47.4268 161.24 46.3709 160.143 45.0071C159.661 44.4351 159.332 43.9952 159.157 43.6872ZM161.328 25.2752C159.88 26.903 159.157 28.9708 159.157 31.4785C159.157 33.9863 159.88 36.054 161.328 37.6819C162.819 39.3097 164.793 40.1236 167.249 40.1236C169.705 40.1236 171.657 39.3097 173.105 37.6819C174.552 36.054 175.276 33.9863 175.276 31.4785C175.276 28.9708 174.552 26.903 173.105 25.2752C171.657 23.6474 169.705 22.8335 167.249 22.8335C164.793 22.8335 162.819 23.6474 161.328 25.2752Z" fill="#111111"/>
    <path d="M34.6297 34.0647H9.01738C9.24471 36.55 10.0783 38.5835 11.6696 40.0145C13.2608 41.4454 15.1553 42.1232 17.4285 42.1232C20.6869 42.1232 23.036 40.6923 24.4758 37.9057H34.0236C33.0385 41.2948 31.0683 44.0061 28.1888 46.1902C25.3093 48.3742 21.8235 49.4287 17.6559 49.4287C14.246 49.4287 11.2149 48.6756 8.56272 47.1693C5.91055 45.663 3.78881 43.5542 2.27329 40.8429C0.757763 38.1316 0 34.9685 0 31.4287C0 27.8136 0.757764 24.6504 2.19752 21.9392C3.63726 19.2279 5.759 17.1191 8.41117 15.6129C11.0634 14.1819 14.0943 13.4287 17.5802 13.4287C20.9142 13.4287 23.8696 14.1066 26.5217 15.5375C29.1739 16.9684 31.2198 19.002 32.6596 21.6379C34.0994 24.2739 34.8571 27.2865 34.8571 30.6756C34.8571 31.8806 34.7814 33.0103 34.6297 34.0647ZM25.6882 28.115C25.6124 25.8555 24.8546 24.048 23.1875 22.6923C21.5962 21.3367 19.6261 20.6589 17.277 20.6589C15.0795 20.6589 13.2608 21.3367 11.7454 22.617C10.2298 23.9727 9.32049 25.7802 9.01738 28.115H25.6882Z" fill="#AACA48"/>
    <path d="M21.9922 74.459H13.4277C13.5514 75.2142 13.8802 75.8164 14.4141 76.2656C14.9544 76.7083 15.6413 76.9297 16.4746 76.9297C17.4707 76.9297 18.3268 76.5814 19.043 75.8848L21.2891 76.9395C20.7292 77.7337 20.0586 78.3229 19.2773 78.707C18.4961 79.0846 17.5684 79.2734 16.4941 79.2734C14.8275 79.2734 13.4701 78.7493 12.4219 77.7012C11.3737 76.6465 10.8496 75.3281 10.8496 73.7461C10.8496 72.125 11.3704 70.7806 12.4121 69.7129C13.4603 68.6387 14.7721 68.1016 16.3477 68.1016C18.0208 68.1016 19.3815 68.6387 20.4297 69.7129C21.4779 70.7806 22.002 72.1934 22.002 73.9512L21.9922 74.459ZM19.3164 72.3594C19.1406 71.7669 18.7923 71.2852 18.2715 70.9141C17.7572 70.543 17.1582 70.3574 16.4746 70.3574C15.7324 70.3574 15.0814 70.5658 14.5215 70.9824C14.1699 71.2428 13.8444 71.7018 13.5449 72.3594H19.3164ZM23.5352 68.375H25.8203V69.7129C26.0677 69.1855 26.3965 68.7852 26.8066 68.5117C27.2168 68.2383 27.666 68.1016 28.1543 68.1016C28.4993 68.1016 28.8607 68.1927 29.2383 68.375L28.4082 70.6699C28.0957 70.5137 27.8385 70.4355 27.6367 70.4355C27.2266 70.4355 26.8783 70.6895 26.5918 71.1973C26.3118 71.7051 26.1719 72.7012 26.1719 74.1855L26.1816 74.7031V79H23.5352V68.375ZM41.2109 74.459H32.6465C32.7702 75.2142 33.099 75.8164 33.6328 76.2656C34.1732 76.7083 34.86 76.9297 35.6934 76.9297C36.6895 76.9297 37.5456 76.5814 38.2617 75.8848L40.5078 76.9395C39.9479 77.7337 39.2773 78.3229 38.4961 78.707C37.7148 79.0846 36.7871 79.2734 35.7129 79.2734C34.0462 79.2734 32.6888 78.7493 31.6406 77.7012C30.5924 76.6465 30.0684 75.3281 30.0684 73.7461C30.0684 72.125 30.5892 70.7806 31.6309 69.7129C32.679 68.6387 33.9909 68.1016 35.5664 68.1016C37.2396 68.1016 38.6003 68.6387 39.6484 69.7129C40.6966 70.7806 41.2207 72.1934 41.2207 73.9512L41.2109 74.459ZM38.5352 72.3594C38.3594 71.7669 38.0111 71.2852 37.4902 70.9141C36.9759 70.543 36.377 70.3574 35.6934 70.3574C34.9512 70.3574 34.3001 70.5658 33.7402 70.9824C33.3887 71.2428 33.0632 71.7018 32.7637 72.3594H38.5352ZM43.3984 64.2734H46.0645V72.7598L49.9902 68.375H53.3301L48.7598 73.4727L53.8867 79H50.5762L46.0645 74.1074V79H43.3984V64.2734ZM61.4844 69.8594L59.834 71.5098C59.1634 70.8457 58.5547 70.5137 58.0078 70.5137C57.7083 70.5137 57.474 70.5788 57.3047 70.709C57.1354 70.8327 57.0508 70.9889 57.0508 71.1777C57.0508 71.321 57.1029 71.4544 57.207 71.5781C57.3177 71.6953 57.5846 71.8581 58.0078 72.0664L58.9844 72.5547C60.013 73.0625 60.7194 73.5801 61.1035 74.1074C61.4876 74.6348 61.6797 75.2533 61.6797 75.9629C61.6797 76.9069 61.3314 77.6947 60.6348 78.3262C59.9447 78.9577 59.0169 79.2734 57.8516 79.2734C56.3021 79.2734 55.0651 78.668 54.1406 77.457L55.7812 75.6699C56.0938 76.0345 56.4583 76.3307 56.875 76.5586C57.2982 76.7799 57.6725 76.8906 57.998 76.8906C58.3496 76.8906 58.6328 76.806 58.8477 76.6367C59.0625 76.4674 59.1699 76.2721 59.1699 76.0508C59.1699 75.6406 58.7826 75.2402 58.0078 74.8496L57.1094 74.4004C55.3906 73.5345 54.5312 72.4505 54.5312 71.1484C54.5312 70.3086 54.8535 69.5924 55.498 69C56.1491 68.401 56.9792 68.1016 57.9883 68.1016C58.6784 68.1016 59.3262 68.2546 59.9316 68.5605C60.5436 68.86 61.0612 69.293 61.4844 69.8594ZM63.7988 64.2734H66.4453V69.4492C66.9661 69 67.4902 68.6647 68.0176 68.4434C68.5449 68.2155 69.0788 68.1016 69.6191 68.1016C70.6738 68.1016 71.5625 68.4661 72.2852 69.1953C72.9036 69.8268 73.2129 70.7546 73.2129 71.9785V79H70.5859V74.3418C70.5859 73.1113 70.5273 72.278 70.4102 71.8418C70.293 71.4056 70.0911 71.0801 69.8047 70.8652C69.5247 70.6504 69.1764 70.543 68.7598 70.543C68.2194 70.543 67.7539 70.722 67.3633 71.0801C66.9792 71.4382 66.7122 71.9264 66.5625 72.5449C66.4844 72.8639 66.4453 73.5931 66.4453 74.7324V79H63.7988V64.2734ZM86.4453 74.459H77.8809C78.0046 75.2142 78.3333 75.8164 78.8672 76.2656C79.4076 76.7083 80.0944 76.9297 80.9277 76.9297C81.9238 76.9297 82.7799 76.5814 83.4961 75.8848L85.7422 76.9395C85.1823 77.7337 84.5117 78.3229 83.7305 78.707C82.9492 79.0846 82.0215 79.2734 80.9473 79.2734C79.2806 79.2734 77.9232 78.7493 76.875 77.7012C75.8268 76.6465 75.3027 75.3281 75.3027 73.7461C75.3027 72.125 75.8236 70.7806 76.8652 69.7129C77.9134 68.6387 79.2253 68.1016 80.8008 68.1016C82.474 68.1016 83.8346 68.6387 84.8828 69.7129C85.931 70.7806 86.4551 72.1934 86.4551 73.9512L86.4453 74.459ZM83.7695 72.3594C83.5938 71.7669 83.2454 71.2852 82.7246 70.9141C82.2103 70.543 81.6113 70.3574 80.9277 70.3574C80.1855 70.3574 79.5345 70.5658 78.9746 70.9824C78.623 71.2428 78.2975 71.7018 77.998 72.3594H83.7695ZM100.723 69.8594L99.0723 71.5098C98.4017 70.8457 97.793 70.5137 97.2461 70.5137C96.9466 70.5137 96.7122 70.5788 96.543 70.709C96.3737 70.8327 96.2891 70.9889 96.2891 71.1777C96.2891 71.321 96.3411 71.4544 96.4453 71.5781C96.556 71.6953 96.8229 71.8581 97.2461 72.0664L98.2227 72.5547C99.2513 73.0625 99.9577 73.5801 100.342 74.1074C100.726 74.6348 100.918 75.2533 100.918 75.9629C100.918 76.9069 100.57 77.6947 99.873 78.3262C99.1829 78.9577 98.2552 79.2734 97.0898 79.2734C95.5404 79.2734 94.3034 78.668 93.3789 77.457L95.0195 75.6699C95.332 76.0345 95.6966 76.3307 96.1133 76.5586C96.5365 76.7799 96.9108 76.8906 97.2363 76.8906C97.5879 76.8906 97.8711 76.806 98.0859 76.6367C98.3008 76.4674 98.4082 76.2721 98.4082 76.0508C98.4082 75.6406 98.0208 75.2402 97.2461 74.8496L96.3477 74.4004C94.6289 73.5345 93.7695 72.4505 93.7695 71.1484C93.7695 70.3086 94.0918 69.5924 94.7363 69C95.3874 68.401 96.2174 68.1016 97.2266 68.1016C97.9167 68.1016 98.5645 68.2546 99.1699 68.5605C99.7819 68.86 100.299 69.293 100.723 69.8594ZM110.879 68.375H113.535V79H110.879V77.877C110.358 78.3717 109.834 78.7298 109.307 78.9512C108.786 79.166 108.219 79.2734 107.607 79.2734C106.234 79.2734 105.046 78.7428 104.043 77.6816C103.04 76.6139 102.539 75.2891 102.539 73.707C102.539 72.0664 103.024 70.722 103.994 69.6738C104.964 68.6257 106.143 68.1016 107.529 68.1016C108.167 68.1016 108.766 68.222 109.326 68.4629C109.886 68.7038 110.404 69.0651 110.879 69.5469V68.375ZM108.076 70.5625C107.249 70.5625 106.562 70.8555 106.016 71.4414C105.469 72.0208 105.195 72.7663 105.195 73.6777C105.195 74.5957 105.472 75.3509 106.025 75.9434C106.585 76.5358 107.272 76.832 108.086 76.832C108.926 76.832 109.622 76.5423 110.176 75.9629C110.729 75.377 111.006 74.612 111.006 73.668C111.006 72.7435 110.729 71.9948 110.176 71.4219C109.622 70.849 108.923 70.5625 108.076 70.5625ZM116.553 64.459H119.209V68.375H120.791V70.6699H119.209V79H116.553V70.6699H115.186V68.375H116.553V64.459ZM121.045 68.375H123.77L126.533 75.0449L129.58 68.375H132.314L125.654 82.8867H122.9L125.088 78.209L121.045 68.375ZM136.475 68.375V69.5469C136.956 69.0651 137.477 68.7038 138.037 68.4629C138.597 68.222 139.196 68.1016 139.834 68.1016C141.221 68.1016 142.399 68.6257 143.369 69.6738C144.339 70.722 144.824 72.0664 144.824 73.707C144.824 75.2891 144.323 76.6139 143.32 77.6816C142.318 78.7428 141.13 79.2734 139.756 79.2734C139.144 79.2734 138.574 79.166 138.047 78.9512C137.52 78.7298 136.995 78.3717 136.475 77.877V82.8867H133.828V68.375H136.475ZM139.277 70.5625C138.438 70.5625 137.741 70.849 137.188 71.4219C136.634 71.9948 136.357 72.7435 136.357 73.668C136.357 74.612 136.634 75.377 137.188 75.9629C137.741 76.5423 138.438 76.832 139.277 76.832C140.091 76.832 140.775 76.5358 141.328 75.9434C141.888 75.3509 142.168 74.5957 142.168 73.6777C142.168 72.7663 141.895 72.0208 141.348 71.4414C140.801 70.8555 140.111 70.5625 139.277 70.5625ZM160.488 68.375H163.145V79H160.488V77.877C159.967 78.3717 159.443 78.7298 158.916 78.9512C158.395 79.166 157.829 79.2734 157.217 79.2734C155.843 79.2734 154.655 78.7428 153.652 77.6816C152.65 76.6139 152.148 75.2891 152.148 73.707C152.148 72.0664 152.633 70.722 153.604 69.6738C154.574 68.6257 155.752 68.1016 157.139 68.1016C157.777 68.1016 158.376 68.222 158.936 68.4629C159.495 68.7038 160.013 69.0651 160.488 69.5469V68.375ZM157.686 70.5625C156.859 70.5625 156.172 70.8555 155.625 71.4414C155.078 72.0208 154.805 72.7663 154.805 73.6777C154.805 74.5957 155.081 75.3509 155.635 75.9434C156.195 76.5358 156.882 76.832 157.695 76.832C158.535 76.832 159.232 76.5423 159.785 75.9629C160.339 75.377 160.615 74.612 160.615 73.668C160.615 72.7435 160.339 71.9948 159.785 71.4219C159.232 70.849 158.532 70.5625 157.686 70.5625ZM165.557 64.2734H168.223V79H165.557V64.2734Z" fill="#111111"/>
</svg>