<svg width="205" height="49" viewBox="0 0 205 49" fill="none" xmlns="http://www.w3.org/2000/svg">
<g clip-path="url(#clip0)">
<path d="M168.35 20.1981C168.307 23.5972 171.332 25.4942 173.61 26.6219C175.951 27.7792 176.737 28.5212 176.728 29.5559C176.71 31.1398 174.861 31.8387 173.13 31.8659C170.11 31.9135 168.354 31.0377 166.958 30.3751L165.87 35.5464C167.271 36.2022 169.864 36.774 172.554 36.799C178.866 36.799 182.996 33.6335 183.018 28.7254C183.043 22.4967 174.537 22.1518 174.595 19.3676C174.615 18.5235 175.408 17.6226 177.146 17.3934C178.006 17.2777 180.38 17.1892 183.072 18.4486L184.128 13.4452C182.681 12.9096 180.82 12.3968 178.504 12.3968C172.563 12.3968 168.383 15.6054 168.35 20.1981ZM194.28 12.828C193.128 12.828 192.156 13.511 191.723 14.5593L182.706 36.4314H189.013L190.269 32.9074H197.977L198.705 36.4314H204.265L199.413 12.828H194.28ZM195.163 19.2042L196.983 28.0674H191.998L195.163 19.2042ZM160.702 12.828L155.73 36.4314H161.74L166.71 12.828H160.702ZM151.81 12.828L145.553 28.8933L143.022 15.2332C142.725 13.7084 141.553 12.828 140.25 12.828H130.022L129.879 13.5132C131.979 13.9761 134.365 14.7227 135.81 15.5214C136.694 16.0093 136.947 16.4359 137.237 17.5954L142.031 36.4314H148.383L158.122 12.828H151.81Z" fill="url(#paint0_linear)"/>
</g>
<path d="M42.2424 25.4075H36.4716C36.4473 25.3828 36.3986 25.3088 36.3255 25.1853C36.2525 25.0618 36.1916 24.963 36.1429 24.8889C35.9481 24.6666 35.729 24.4444 35.4855 24.2221C35.2177 24.0492 34.8646 23.864 34.4263 23.6664C34.0124 23.5182 33.5132 23.4441 32.9288 23.4441C31.6383 23.4441 30.64 23.9134 29.9339 24.8519C29.2278 25.7903 28.8747 26.9388 28.8747 28.2971C28.8747 29.6307 29.24 30.7791 29.9704 31.7423C30.7009 32.7055 31.6992 33.1871 32.9654 33.1871C33.6471 33.1871 34.3654 33.0018 35.1203 32.6314C35.8751 32.2609 36.3499 31.7917 36.5447 31.2237H42.2424C42.1693 32.6067 41.6336 33.8909 40.6353 35.0764C39.637 36.2371 38.4561 37.0892 37.0925 37.6325C35.8994 38.1264 34.475 38.3734 32.8193 38.3734C29.9217 38.3734 27.5477 37.4226 25.6972 35.5209C23.8467 33.5946 22.9214 31.1866 22.9214 28.2971C22.9214 25.3335 23.8467 22.9132 25.6972 21.0362C27.5477 19.1592 29.8974 18.2208 32.7462 18.2208C35.1081 18.2208 37.2143 18.8629 39.0648 20.1471C40.9397 21.4067 41.9989 23.1601 42.2424 25.4075Z" fill="black"/>
<path d="M46.2754 37.8918V10.6265H52.2287V37.8918H46.2754Z" fill="black"/>
<path d="M67.1503 38.3364C64.1797 38.3364 61.7935 37.5337 59.9917 35.9284C58.2142 34.3231 57.3254 32.0634 57.3254 29.1491V18.7023H63.2788V28.7046C63.2788 29.9641 63.5953 30.9643 64.2284 31.7052C64.8858 32.4462 65.8233 32.8166 67.0407 32.8166C68.2582 32.8166 69.1956 32.4462 69.853 31.7052C70.5104 30.9643 70.8392 29.9641 70.8392 28.7046V18.7023H76.7925V29.1491C76.7925 32.1127 75.9038 34.3849 74.1263 35.9655C72.3732 37.5461 70.0478 38.3364 67.1503 38.3364Z" fill="black"/>
<path d="M87.6414 35.1505V37.8918H81.8342V10.6265H87.7145V21.5178C87.8119 21.3449 87.9945 21.0979 88.2623 20.7769C88.8467 20.0113 89.6624 19.4186 90.7094 18.9987C91.7808 18.5542 92.8399 18.3319 93.887 18.3319C96.5897 18.3319 98.7081 19.3074 100.242 21.2585C101.776 23.1848 102.543 25.531 102.543 28.2971C102.543 31.1125 101.764 33.4834 100.206 35.4098C98.6472 37.3361 96.541 38.2993 93.887 38.2993C92.8156 38.2993 91.7442 38.0894 90.6729 37.6695C89.6259 37.2497 88.798 36.657 88.1893 35.8914C87.9214 35.5703 87.7388 35.3233 87.6414 35.1505ZM88.8467 24.8148C88.0432 25.7286 87.6414 26.8894 87.6414 28.2971C87.6414 29.7048 88.0432 30.8656 88.8467 31.7793C89.6746 32.6931 90.7703 33.15 92.1338 33.15C93.4974 33.15 94.5809 32.6931 95.3844 31.7793C96.1879 30.8656 96.5897 29.7048 96.5897 28.2971C96.5897 26.8894 96.1879 25.7286 95.3844 24.8148C94.5809 23.901 93.4974 23.4441 92.1338 23.4441C90.7703 23.4441 89.6746 23.901 88.8467 24.8148Z" fill="black"/>
<path d="M19.1763 30.1355H4.99339C5.11928 31.468 5.58086 32.5584 6.46206 33.3256C7.3432 34.0928 8.39228 34.4563 9.65108 34.4563C11.4554 34.4563 12.7562 33.689 13.5535 32.1949H18.8406C18.2952 34.0121 17.2041 35.4658 15.6096 36.6369C14.0151 37.8079 12.0848 38.3733 9.77701 38.3733C7.88875 38.3733 6.21027 37.9695 4.74163 37.1618C3.27298 36.3542 2.09806 35.2235 1.25884 33.7698C0.419613 32.3161 0 30.6201 0 28.7221C0 26.7838 0.419613 25.0878 1.21688 23.6341C2.01414 22.1804 3.18906 21.0498 4.6577 20.2421C6.12636 19.4749 7.80478 19.071 9.73505 19.071C11.5813 19.071 13.2178 19.4345 14.6865 20.2017C16.1551 20.9689 17.288 22.0593 18.0853 23.4726C18.8826 24.8859 19.3022 26.5012 19.3022 28.3184C19.3022 28.9644 19.2603 29.5701 19.1763 30.1355ZM14.2249 26.9454C14.1829 25.734 13.7633 24.7648 12.8402 24.0379C11.959 23.3111 10.868 22.9477 9.56717 22.9477C8.35032 22.9477 7.3432 23.3111 6.50402 23.9976C5.66478 24.7244 5.16124 25.6936 4.99339 26.9454H14.2249Z" fill="#C5DA5A"/>
<rect x="118.072" width="0.590361" height="49" fill="#25469D"/>
<defs>
<linearGradient id="paint0_linear" x1="164.078" y1="37.2885" x2="164.795" y2="12.2278" gradientUnits="userSpaceOnUse">
<stop stop-color="#222357"/>
<stop offset="1" stop-color="#254AA5"/>
</linearGradient>
<clipPath id="clip0">
<rect width="74.3855" height="24.5" fill="white" transform="translate(129.879 12.3976)"/>
</clipPath>
</defs>
</svg>
